<svg xmlns="http://www.w3.org/2000/svg" xmlns:xlink="http://www.w3.org/1999/xlink" width="500" zoomAndPan="magnify" viewBox="0 0 375 262.499992" height="350" preserveAspectRatio="xMidYMid meet" version="1.2"><defs><clipPath id="25cfc54740"><path d="M 0.355469 0 L 374.640625 0 L 374.640625 262 L 0.355469 262 Z M 0.355469 0 "/></clipPath><clipPath id="8ec40d58c9"><path d="M 0.355469 0 L 374.640625 0 L 374.640625 262 L 0.355469 262 Z M 0.355469 0 "/></clipPath><clipPath id="d6f42a37fe"><path d="M -25.921875 -30.257812 L 404.605469 -30.257812 C 412.871094 -30.257812 419.574219 -23.554688 419.574219 -15.289062 L 419.574219 247.03125 C 419.574219 255.296875 412.871094 262 404.605469 262 L -25.921875 262 C -34.1875 262 -40.890625 255.296875 -40.890625 247.03125 L -40.890625 -15.289062 C -40.890625 -23.554688 -34.1875 -30.257812 -25.921875 -30.257812 Z M -25.921875 -30.257812 "/></clipPath><clipPath id="bf31ab7356"><path d="M 0.355469 0 L 374.640625 0 L 374.640625 262 L 0.355469 262 Z M 0.355469 0 "/></clipPath><clipPath id="5637670de3"><path d="M -25.921875 -30.257812 L 404.605469 -30.257812 C 412.871094 -30.257812 419.574219 -23.554688 419.574219 -15.289062 L 419.574219 247.03125 C 419.574219 255.296875 412.871094 262 404.605469 262 L -25.921875 262 C -34.1875 262 -40.890625 255.296875 -40.890625 247.03125 L -40.890625 -15.289062 C -40.890625 -23.554688 -34.1875 -30.257812 -25.921875 -30.257812 Z M -25.921875 -30.257812 "/></clipPath><clipPath id="5ea4872988"><rect x="0" width="375" y="0" height="262"/></clipPath><clipPath id="f1d4aa574a"><path d="M 7 22 L 372 22 L 372 260 L 7 260 Z M 7 22 "/></clipPath><clipPath id="a4a6499db3"><path d="M 16.164062 22.875 L 371.324219 36.875 L 362.445312 262.097656 L 7.285156 248.097656 Z M 16.164062 22.875 "/></clipPath><clipPath id="edc5b9bfde"><path d="M 93 88 L 271 88 L 271 174 L 93 174 Z M 93 88 "/></clipPath><clipPath id="b225d20b91"><path d="M 9.164062 0.875 L 364.324219 14.875 L 355.445312 240.097656 L 0.285156 226.097656 Z M 9.164062 0.875 "/></clipPath><clipPath id="5d7ede1e3f"><path d="M 364.359375 14.875 L 9.199219 0.875 L 0.320312 226.097656 L 355.480469 240.097656 Z M 364.359375 14.875 "/></clipPath><clipPath id="b8cf575015"><path d="M 5 8 L 362 8 L 362 136 L 5 136 Z M 5 8 "/></clipPath><clipPath id="831c620d0b"><path d="M 9.164062 0.875 L 364.324219 14.875 L 355.445312 240.097656 L 0.285156 226.097656 Z M 9.164062 0.875 "/></clipPath><clipPath id="f49e83289d"><path d="M 364.359375 14.875 L 9.199219 0.875 L 0.320312 226.097656 L 355.480469 240.097656 Z M 364.359375 14.875 "/></clipPath><clipPath id="0ee74e7d17"><path d="M 311 103 L 319 103 L 319 166 L 311 166 Z M 311 103 "/></clipPath><clipPath id="829fe78ee0"><path d="M 9.164062 0.875 L 364.324219 14.875 L 355.445312 240.097656 L 0.285156 226.097656 Z M 9.164062 0.875 "/></clipPath><clipPath id="48005a8755"><path d="M 364.359375 14.875 L 9.199219 0.875 L 0.320312 226.097656 L 355.480469 240.097656 Z M 364.359375 14.875 "/></clipPath><clipPath id="69dc79ced3"><path d="M 295 171 L 329 171 L 329 236 L 295 236 Z M 295 171 "/></clipPath><clipPath id="a2bca806a3"><path d="M 9.164062 0.875 L 364.324219 14.875 L 355.445312 240.097656 L 0.285156 226.097656 Z M 9.164062 0.875 "/></clipPath><clipPath id="808b9ef026"><path d="M 364.359375 14.875 L 9.199219 0.875 L 0.320312 226.097656 L 355.480469 240.097656 Z M 364.359375 14.875 "/></clipPath><clipPath id="73c2db86a3"><path d="M 318 189 L 324 189 L 324 233 L 318 233 Z M 318 189 "/></clipPath><clipPath id="db7a4e7072"><path d="M 9.164062 0.875 L 364.324219 14.875 L 355.445312 240.097656 L 0.285156 226.097656 Z M 9.164062 0.875 "/></clipPath><clipPath id="c17f438440"><path d="M 364.359375 14.875 L 9.199219 0.875 L 0.320312 226.097656 L 355.480469 240.097656 Z M 364.359375 14.875 "/></clipPath><clipPath id="b517ab2c56"><path d="M 306 203 L 315 203 L 315 235 L 306 235 Z M 306 203 "/></clipPath><clipPath id="7ff4cc7c92"><path d="M 9.164062 0.875 L 364.324219 14.875 L 355.445312 240.097656 L 0.285156 226.097656 Z M 9.164062 0.875 "/></clipPath><clipPath id="42ede8c584"><path d="M 364.359375 14.875 L 9.199219 0.875 L 0.320312 226.097656 L 355.480469 240.097656 Z M 364.359375 14.875 "/></clipPath><clipPath id="547467261f"><path d="M 300 192 L 306 192 L 306 235 L 300 235 Z M 300 192 "/></clipPath><clipPath id="00b195cf5d"><path d="M 9.164062 0.875 L 364.324219 14.875 L 355.445312 240.097656 L 0.285156 226.097656 Z M 9.164062 0.875 "/></clipPath><clipPath id="febc71876f"><path d="M 364.359375 14.875 L 9.199219 0.875 L 0.320312 226.097656 L 355.480469 240.097656 Z M 364.359375 14.875 "/></clipPath><clipPath id="9998ab918c"><path d="M 302 156 L 324 156 L 324 177 L 302 177 Z M 302 156 "/></clipPath><clipPath id="5735293e25"><path d="M 9.164062 0.875 L 364.324219 14.875 L 355.445312 240.097656 L 0.285156 226.097656 Z M 9.164062 0.875 "/></clipPath><clipPath id="8071e6d8f3"><path d="M 364.359375 14.875 L 9.199219 0.875 L 0.320312 226.097656 L 355.480469 240.097656 Z M 364.359375 14.875 "/></clipPath><clipPath id="6200197643"><rect x="0" width="365" y="0" height="238"/></clipPath><clipPath id="02f0d78c9c"><rect x="0" width="375" y="0" height="262"/></clipPath></defs><g id="6d37f4080c"><g clip-rule="nonzero" clip-path="url(#25cfc54740)"><g transform="matrix(1,0,0,1,0.000000000000000111,0)"><g clip-path="url(#02f0d78c9c)"><g clip-rule="nonzero" clip-path="url(#8ec40d58c9)"><g clip-rule="nonzero" clip-path="url(#d6f42a37fe)"><g transform="matrix(1,0,0,1,0.000000000000000111,0)"><g id="107f5bb9c4" clip-path="url(#5ea4872988)"><g clip-rule="nonzero" clip-path="url(#bf31ab7356)"><g clip-rule="nonzero" clip-path="url(#5637670de3)"><rect x="0" width="375" y="0" height="262" style="fill:#ffffff;fill-opacity:1;stroke:none;"/></g></g></g></g></g></g><g clip-rule="nonzero" clip-path="url(#f1d4aa574a)"><g clip-rule="nonzero" clip-path="url(#a4a6499db3)"><g transform="matrix(1,0,0,1,7,22)"><g id="4b31645d4f" clip-path="url(#6200197643)"><g clip-rule="nonzero" clip-path="url(#edc5b9bfde)"><g clip-rule="nonzero" clip-path="url(#b225d20b91)"><g clip-rule="nonzero" clip-path="url(#5d7ede1e3f)"><path style=" stroke:none;fill-rule:nonzero;fill:#0060d0;fill-opacity:1;" d="M 219.835938 150.175781 C 194.816406 146.617188 164.859375 147.386719 139.703125 152.226562 C 125.058594 155.042969 101.464844 161.378906 93.828125 173.78125 C 93.898438 173.058594 94.078125 172.363281 94.378906 171.699219 C 94.320312 162.085938 94.253906 151.6875 94.1875 141.023438 C 94.203125 141.027344 94.214844 141.03125 94.226562 141.03125 C 94.175781 132.570312 94.125 123.957031 94.078125 115.417969 C 95.785156 106.558594 112.578125 98.003906 138.054688 93.042969 C 163.046875 88.175781 192.835938 87.269531 217.742188 90.621094 C 245.222656 94.316406 263.898438 102.667969 270.453125 114.175781 C 270.609375 115.238281 270.933594 117.800781 270.863281 120.332031 C 270.707031 126.511719 270.527344 134.03125 270.367188 141.660156 C 270.40625 141.648438 270.449219 141.640625 270.488281 141.625 C 270.234375 153.960938 270.105469 163.5625 270.117188 169.746094 C 262.324219 162.023438 247.578125 154.121094 219.835938 150.175781 "/></g></g></g><g clip-rule="nonzero" clip-path="url(#b8cf575015)"><g clip-rule="nonzero" clip-path="url(#831c620d0b)"><g clip-rule="nonzero" clip-path="url(#f49e83289d)"><path style=" stroke:none;fill-rule:nonzero;fill:#0060d0;fill-opacity:1;" d="M 7.636719 82.539062 L 188.222656 8.261719 C 188.921875 7.972656 189.703125 8.003906 190.378906 8.347656 L 359.566406 93.894531 C 360.546875 94.394531 361.15625 95.464844 361.125 96.625 C 361.089844 97.789062 360.417969 98.824219 359.410156 99.265625 L 276.363281 135.695312 C 276.476562 130.59375 276.605469 125.117188 276.753906 119.300781 C 276.859375 115.320312 276.191406 111.464844 276.164062 111.300781 L 276.070312 110.78125 L 275.824219 110.328125 C 270.703125 100.792969 256.609375 88.359375 218.550781 83.242188 C 193.085938 79.816406 162.628906 80.742188 137.082031 85.71875 C 120.003906 89.042969 90.957031 97.074219 88.320312 113.460938 L 88.277344 113.734375 L 88.28125 114.011719 C 88.3125 120.476562 88.351562 126.984375 88.390625 133.4375 L 7.324219 87.878906 C 6.371094 87.34375 5.804688 86.261719 5.871094 85.109375 C 5.941406 83.960938 6.628906 82.957031 7.636719 82.539062 "/></g></g></g><g clip-rule="nonzero" clip-path="url(#0ee74e7d17)"><g clip-rule="nonzero" clip-path="url(#829fe78ee0)"><g clip-rule="nonzero" clip-path="url(#48005a8755)"><path style=" stroke:none;fill-rule:nonzero;fill:#0060d0;fill-opacity:1;" d="M 311.710938 165.496094 L 317.195312 165.613281 L 318.5 104.101562 L 313.015625 103.984375 L 311.710938 165.496094 "/></g></g></g><g clip-rule="nonzero" clip-path="url(#69dc79ced3)"><g clip-rule="nonzero" clip-path="url(#a2bca806a3)"><g clip-rule="nonzero" clip-path="url(#808b9ef026)"><path style=" stroke:none;fill-rule:evenodd;fill:#0060d0;fill-opacity:1;" d="M 318.183594 173.261719 C 327.507812 186.917969 330.128906 205.183594 327.609375 227.015625 C 313.121094 238.277344 302.5625 237.453125 295.023438 227.351562 C 296.539062 185.160156 303.574219 164.445312 318.183594 173.261719 "/></g></g></g><g clip-rule="nonzero" clip-path="url(#73c2db86a3)"><g clip-rule="nonzero" clip-path="url(#db7a4e7072)"><g clip-rule="nonzero" clip-path="url(#c17f438440)"><path style=" stroke:none;fill-rule:evenodd;fill:#0060d0;fill-opacity:1;" d="M 318.207031 232.910156 L 321.058594 189.902344 L 323.601562 229.894531 C 321.722656 231.101562 319.941406 232.113281 318.207031 232.910156 "/></g></g></g><g clip-rule="nonzero" clip-path="url(#b517ab2c56)"><g clip-rule="nonzero" clip-path="url(#7ff4cc7c92)"><g clip-rule="nonzero" clip-path="url(#42ede8c584)"><path style=" stroke:none;fill-rule:evenodd;fill:#0060d0;fill-opacity:1;" d="M 311.78125 208.941406 L 310.953125 227.21875 L 314.59375 203.4375 L 311.816406 233.816406 C 310.0625 234.265625 308.40625 234.492188 306.839844 234.550781 L 306.683594 234.519531 L 311.78125 208.941406 "/></g></g></g><g clip-rule="nonzero" clip-path="url(#547467261f)"><g clip-rule="nonzero" clip-path="url(#00b195cf5d)"><g clip-rule="nonzero" clip-path="url(#febc71876f)"><path style=" stroke:none;fill-rule:evenodd;fill:#0060d0;fill-opacity:1;" d="M 305.429688 192.929688 L 303.398438 234.175781 C 302.359375 233.769531 301.347656 233.242188 300.378906 232.597656 L 300.175781 212.613281 L 302.933594 211.367188 L 305.429688 192.929688 "/></g></g></g><g clip-rule="nonzero" clip-path="url(#9998ab918c)"><g clip-rule="nonzero" clip-path="url(#5735293e25)"><g clip-rule="nonzero" clip-path="url(#8071e6d8f3)"><path style=" stroke:none;fill-rule:evenodd;fill:#0060d0;fill-opacity:1;" d="M 312.832031 156.582031 C 307.140625 156.628906 302.582031 161.042969 302.644531 166.433594 C 302.683594 171.824219 307.347656 176.136719 313.039062 176.089844 C 318.726562 176.023438 323.308594 171.613281 323.246094 166.21875 C 323.183594 160.828125 318.542969 156.519531 312.832031 156.582031 "/></g></g></g></g></g></g></g></g></g></g></g></svg>